<svg preserveAspectRatio="none" width="100%" height="100%" overflow="visible" style="display: block;" viewBox="0 0 72 12" fill="none" xmlns="http://www.w3.org/2000/svg">
<g id="Frame 64">
<path id="Vector" d="M12 6C12 5.8692 11.9988 5.7408 11.997 5.6148L11.9868 5.2452L11.979 5.0658L11.9586 4.7184L11.931 4.3866C11.6526 1.5156 10.4844 0.3474 7.6134 0.0690003L7.2816 0.0414003L6.9342 0.0210003C6.8754 0.0180003 6.8154 0.0150003 6.7548 0.0132003L6.3852 0.0030003L6.1944 0.00060018L6 2.14569e-07C5.8692 2.08851e-07 5.7408 0.00120027 5.6148 0.00300027L5.2452 0.0132002L5.0658 0.0210002L4.7184 0.0414002L4.3866 0.0690002C1.5156 0.3474 0.347401 1.5156 0.0690004 4.3866L0.0414014 4.7184L0.0210011 5.0658C0.0180011 5.1246 0.0150008 5.1846 0.0132008 5.2452L0.003 5.6148L7.12069e-07 6L0.00299996 6.3852L0.0132008 6.7548L0.021001 6.9342L0.0414013 7.2816L0.0690003 7.6134C0.3474 10.4844 1.5156 11.6526 4.3866 11.931L4.7184 11.9586L5.0658 11.979C5.1246 11.982 5.1846 11.985 5.2452 11.9868L5.6148 11.997L6 12L6.3852 11.997L6.7548 11.9868L6.9342 11.979L7.2816 11.9586L7.6134 11.931C10.4844 11.6526 11.6526 10.4844 11.931 7.6134L11.9586 7.2816L11.979 6.9342C11.9819 6.87442 11.9845 6.81461 11.9868 6.7548L11.997 6.3852L11.9994 6.1944L12 6Z" fill="var(--fill-0, #FEFDF9)"/>
<path id="Vector_2" d="M31.625 6.18945L31.624 6.18945L31.623 6.375L31.6221 6.375L31.6133 6.74023L31.6123 6.74023C31.6101 6.79743 31.6082 6.85494 31.6055 6.91211L31.6045 6.91211L31.584 7.25977L31.585 7.25977L31.5586 7.57715L31.5576 7.57715C31.4221 8.97516 31.0761 9.88285 30.4795 10.4795C29.9575 11.0015 29.1974 11.3318 28.0791 11.4971L27.5771 11.5576L27.2607 11.584L27.2598 11.584L26.9121 11.6045L26.7383 11.6123L26.375 11.6221L25.9971 11.625L25.625 11.6221L25.2559 11.6123C25.2009 11.6107 25.1457 11.6074 25.0879 11.6045L24.749 11.585L24.4229 11.5576C23.0248 11.4221 22.1171 11.0761 21.5205 10.4795C20.9239 9.88285 20.5779 8.97516 20.4424 7.57715L20.416 7.25977L20.3955 6.91211L20.3877 6.73828L20.3779 6.375L20.376 6L20.3779 5.62402L20.3779 5.625L20.3877 5.25586C20.3893 5.20055 20.3925 5.14507 20.3955 5.08691L20.3955 5.08789L20.416 4.74023L20.416 4.73926L20.4424 4.42187L20.4424 4.42285C20.5779 3.02484 20.9239 2.11715 21.5205 1.52051C22.0425 0.99849 22.8026 0.668199 23.9209 0.50293L24.4229 0.442383L24.749 0.415039L25.0879 0.395508L25.2617 0.387695L25.625 0.37793C25.7479 0.37619 25.8725 0.375006 25.999 0.375L26.1895 0.375977L26.375 0.37793L26.7441 0.387696C26.7991 0.389335 26.8543 0.392562 26.9121 0.395508L27.2598 0.416016L27.2607 0.415039L27.5771 0.442383C28.9752 0.577948 29.8829 0.923869 30.4795 1.52051C31.076 2.11703 31.423 3.02433 31.5586 4.42188L31.585 4.73926L31.584 4.74023L31.6055 5.08691L31.6123 5.26172L31.6133 5.26074L31.6221 5.625L31.623 5.62402C31.6248 5.74722 31.625 5.87216 31.625 5.99902L31.625 6.18945Z" stroke="var(--stroke-0, #FEFDF9)" stroke-width="0.75"/>
<path id="Vector_3" d="M51.625 6.18945L51.624 6.18945L51.623 6.375L51.6221 6.375L51.6133 6.74023L51.6123 6.74023C51.6101 6.79743 51.6082 6.85494 51.6055 6.91211L51.6045 6.91211L51.584 7.25977L51.585 7.25977L51.5586 7.57715L51.5576 7.57715C51.4221 8.97516 51.0761 9.88285 50.4795 10.4795C49.9575 11.0015 49.1974 11.3318 48.0791 11.4971L47.5771 11.5576L47.2607 11.584L47.2598 11.584L46.9121 11.6045L46.7383 11.6123L46.375 11.6221L45.9971 11.625L45.625 11.6221L45.2559 11.6123C45.2009 11.6107 45.1457 11.6074 45.0879 11.6045L44.749 11.585L44.4229 11.5576C43.0248 11.4221 42.1171 11.0761 41.5205 10.4795C40.9239 9.88285 40.5779 8.97516 40.4424 7.57715L40.416 7.25977L40.3955 6.91211L40.3877 6.73828L40.3779 6.375L40.376 6L40.3779 5.62402L40.3779 5.625L40.3877 5.25586C40.3893 5.20055 40.3925 5.14507 40.3955 5.08691L40.3955 5.08789L40.416 4.74023L40.416 4.73926L40.4424 4.42187L40.4424 4.42285C40.5779 3.02484 40.9239 2.11715 41.5205 1.52051C42.0425 0.99849 42.8026 0.668199 43.9209 0.50293L44.4229 0.442383L44.749 0.415039L45.0879 0.395508L45.2617 0.387695L45.625 0.37793C45.7479 0.37619 45.8725 0.375006 45.999 0.375L46.1895 0.375977L46.375 0.37793L46.7441 0.387696C46.7991 0.389335 46.8543 0.392562 46.9121 0.395508L47.2598 0.416016L47.2607 0.415039L47.5771 0.442383C48.9752 0.577948 49.8829 0.923869 50.4795 1.52051C51.076 2.11703 51.423 3.02433 51.5586 4.42188L51.585 4.73926L51.584 4.74023L51.6055 5.08691L51.6123 5.26172L51.6133 5.26074L51.6221 5.625L51.623 5.62402C51.6248 5.74722 51.625 5.87216 51.625 5.99902L51.625 6.18945Z" stroke="var(--stroke-0, #FEFDF9)" stroke-width="0.75"/>
<path id="Vector_4" d="M71.625 6.18945L71.624 6.18945L71.623 6.375L71.6221 6.375L71.6133 6.74023L71.6123 6.74023C71.6101 6.79743 71.6082 6.85494 71.6055 6.91211L71.6045 6.91211L71.584 7.25977L71.585 7.25977L71.5586 7.57715L71.5576 7.57715C71.4221 8.97516 71.0761 9.88285 70.4795 10.4795C69.9575 11.0015 69.1974 11.3318 68.0791 11.4971L67.5771 11.5576L67.2607 11.584L67.2598 11.584L66.9121 11.6045L66.7383 11.6123L66.375 11.6221L65.9971 11.625L65.625 11.6221L65.2559 11.6123C65.2009 11.6107 65.1457 11.6074 65.0879 11.6045L64.749 11.585L64.4229 11.5576C63.0248 11.4221 62.1171 11.0761 61.5205 10.4795C60.9239 9.88285 60.5779 8.97516 60.4424 7.57715L60.416 7.25977L60.3955 6.91211L60.3877 6.73828L60.3779 6.375L60.376 6L60.3779 5.62402L60.3779 5.625L60.3877 5.25586C60.3893 5.20055 60.3925 5.14507 60.3955 5.08691L60.3955 5.08789L60.416 4.74023L60.416 4.73926L60.4424 4.42187L60.4424 4.42285C60.5779 3.02484 60.9239 2.11715 61.5205 1.52051C62.0425 0.99849 62.8026 0.668199 63.9209 0.50293L64.4229 0.442383L64.749 0.415039L65.0879 0.395508L65.2617 0.387695L65.625 0.37793C65.7479 0.37619 65.8725 0.375006 65.999 0.375L66.1895 0.375977L66.375 0.37793L66.7441 0.387696C66.7991 0.389335 66.8543 0.392562 66.9121 0.395508L67.2598 0.416016L67.2607 0.415039L67.5771 0.442383C68.9752 0.577948 69.8829 0.923869 70.4795 1.52051C71.076 2.11703 71.423 3.02433 71.5586 4.42188L71.585 4.73926L71.584 4.74023L71.6055 5.08691L71.6123 5.26172L71.6133 5.26074L71.6221 5.625L71.623 5.62402C71.6248 5.74722 71.625 5.87216 71.625 5.99902L71.625 6.18945Z" stroke="var(--stroke-0, #FEFDF9)" stroke-width="0.75"/>
</g>
</svg>
