<svg preserveAspectRatio="none" width="100%" height="100%" overflow="visible" style="display: block;" viewBox="0 0 32 32" fill="none" xmlns="http://www.w3.org/2000/svg">
<g id="circle-chevron-left 1" clip-path="url(#clip0_0_4)">
<g id="Vector">
</g>
<path id="Vector_2" d="M12.3908 11.0573C12.6408 10.8074 12.9799 10.667 13.3334 10.667C13.687 10.667 14.0261 10.8074 14.2761 11.0573L18.2761 15.0573C18.5261 15.3074 18.6665 15.6464 18.6665 16C18.6665 16.3536 18.5261 16.6926 18.2761 16.9427L14.2761 20.9427C14.0261 21.1926 13.687 21.333 13.3334 21.333C12.9799 21.333 12.6408 21.1926 12.3908 20.9427L12.2801 20.8173C12.0811 20.5608 11.9825 20.2405 12.0029 19.9164C12.0233 19.5924 12.1612 19.2869 12.3908 19.0573L15.4468 16L12.3908 12.9427C12.1408 12.6926 12.0004 12.3536 12.0004 12C12.0004 11.6464 12.1408 11.3074 12.3908 11.0573Z" fill="var(--fill-0, #141414)"/>
</g>
<defs>
<clipPath id="clip0_0_4">
<rect width="32" height="32" fill="white"/>
</clipPath>
</defs>
</svg>
