<svg preserveAspectRatio="none" width="100%" height="100%" overflow="visible" style="display: block;" viewBox="0 0 32 32" fill="none" xmlns="http://www.w3.org/2000/svg">
<g id="circle-chevron-left 1" clip-path="url(#clip0_0_4)">
<g id="Vector">
</g>
<path id="Vector_2" d="M18.276 11.0573C18.026 10.8074 17.6869 10.667 17.3333 10.667C16.9798 10.667 16.6407 10.8074 16.3907 11.0573L12.3907 15.0573C12.1407 15.3074 12.0003 15.6464 12.0003 16C12.0003 16.3536 12.1407 16.6926 12.3907 16.9427L16.3907 20.9427C16.6407 21.1926 16.9798 21.333 17.3333 21.333C17.6869 21.333 18.026 21.1926 18.276 20.9427L18.3867 20.8173C18.5857 20.5608 18.6842 20.2405 18.6639 19.9164C18.6435 19.5924 18.5056 19.2869 18.276 19.0573L15.22 16L18.276 12.9427C18.526 12.6926 18.6664 12.3536 18.6664 12C18.6664 11.6464 18.526 11.3074 18.276 11.0573Z" fill="var(--fill-0, #141414)"/>
</g>
<defs>
<clipPath id="clip0_0_4">
<rect width="32" height="32" fill="white"/>
</clipPath>
</defs>
</svg>
