<svg preserveAspectRatio="none" width="100%" height="100%" overflow="visible" style="display: block;" viewBox="0 0 30 30" fill="none" xmlns="http://www.w3.org/2000/svg">
<path id="&#226;&#128;&#157;" d="M30 18.37H18.37V0H30V18.37ZM20.8811 30H18.1057V24.3172H20.8811C21.7621 24.3172 22.4229 24.141 22.8634 23.7885C23.304 23.348 23.5242 22.5551 23.5242 21.4097V15.3304H30V21.2775C30 24.2731 29.207 26.4758 27.6211 27.8855C26.0352 29.2952 23.7885 30 20.8811 30ZM11.7621 18.37H0.132159V0H11.7621V18.37ZM2.77533 30H0V24.3172H2.64317C3.52423 24.3172 4.18502 24.141 4.62555 23.7885C5.06608 23.348 5.28634 22.5551 5.28634 21.4097V15.3304H11.7621V21.2775C11.7621 24.2731 10.9692 26.4758 9.38326 27.8855C7.79736 29.2952 5.59471 30 2.77533 30Z" fill="var(--fill-0, #B6CB00)"/>
</svg>
