<svg preserveAspectRatio="none" width="100%" height="100%" overflow="visible" style="display: block;" viewBox="0 0 87.048 260.243" fill="none" xmlns="http://www.w3.org/2000/svg">
<path id="Union" d="M85.5483 258.743H60.9721V185.467L23.0649 223.374C22.4505 223.986 21.8636 224.515 21.2846 224.952L21.269 224.963L21.2543 224.974C18.9661 226.61 16.5632 227.329 14.2485 227.349C10.021 227.387 6.26755 225.106 4.07465 222.277C2.37801 220.088 1.03667 216.704 1.82855 212.856C2.18757 211.112 2.97716 209.319 4.31293 207.546C4.67152 207.044 5.04605 206.677 5.3725 206.347L82.9819 127.997L85.5483 125.407V258.743ZM13.8774 211.357C11.8243 211.357 10.1597 213.022 10.1596 215.075C10.1597 217.128 11.8243 218.792 13.8774 218.792C15.9303 218.792 17.5941 217.128 17.5942 215.075L17.5893 214.883C17.4895 212.919 15.8661 211.357 13.8774 211.357ZM85.1664 101.6L84.7241 102.04L22.85 163.615C22.4239 164.039 21.9575 164.51 21.2719 164.931C15.3072 168.858 7.84255 166.915 4.20453 162.023C2.06703 159.149 -0.388271 153.102 3.73871 147.312L3.75043 147.295L3.76312 147.278C4.18631 146.718 4.64045 146.142 5.2182 145.635L82.6049 68.2485L85.1664 65.688V101.6ZM13.8774 150.921C11.8243 150.921 10.1598 152.585 10.1596 154.638C10.1597 156.691 11.8243 158.356 13.8774 158.356C15.9304 158.356 17.5951 156.691 17.5952 154.638C17.595 152.585 15.9304 150.921 13.8774 150.921ZM85.1664 39.5327L84.7241 39.9721L22.85 101.548C22.4244 101.972 21.9575 102.443 21.2719 102.864L21.2729 102.865C15.308 106.792 7.8425 104.848 4.20453 99.9555C2.06702 97.0812 -0.388139 91.0357 3.73871 85.2456L3.75043 85.228L3.76312 85.2114C4.1837 84.6549 4.63534 84.0825 5.20844 83.5776L82.6049 6.18209L85.1664 3.62155V39.5327ZM13.8774 88.7446C11.8243 88.7446 10.1597 90.4094 10.1596 92.4624C10.1596 94.5156 11.8242 96.1801 13.8774 96.1801C15.9305 96.1801 17.5951 94.5155 17.5952 92.4624C17.5951 90.4094 15.9304 88.7447 13.8774 88.7446Z" stroke="var(--stroke-0, #FEFDF9)" stroke-width="3"/>
</svg>
